<?xml version="1.0" standalone="no"?>
<!DOCTYPE svg PUBLIC "-//W3C//DTD SVG 20010904//EN"
 "http://www.w3.org/TR/2001/REC-SVG-20010904/DTD/svg10.dtd">
<svg version="1.0" xmlns="http://www.w3.org/2000/svg"
 width="260.000000pt" height="260.000000pt" viewBox="0 0 260.000000 260.000000"
 preserveAspectRatio="xMidYMid meet">
<metadata>
Created by potrace 1.11, written by Peter Selinger 2001-2013
</metadata>
<g transform="translate(0.000000,260.000000) scale(0.100000,-0.100000)"
fill="#000000" stroke="none">
<path d="M1687 2366 c-53 -14 -70 -26 -41 -27 16 0 15 -2 -4 -10 -17 -6 -27
-5 -38 6 -22 21 -78 29 -148 19 -33 -5 -132 -8 -219 -7 -92 1 -155 -3 -151 -8
3 -5 11 -9 19 -9 8 0 17 -5 21 -12 5 -8 -4 -9 -33 -5 -35 6 -46 3 -78 -23 -21
-17 -50 -30 -64 -30 -32 0 -119 -40 -166 -76 -39 -29 -88 -123 -79 -151 5 -14
4 -15 -4 -4 -9 12 -12 9 -18 -15 -4 -16 -11 -34 -16 -41 -5 -6 -11 -33 -14
-58 -2 -26 -8 -73 -13 -104 -5 -31 -7 -69 -4 -85 4 -18 1 -31 -8 -37 -12 -8
-12 -10 0 -18 10 -6 12 -19 7 -46 -5 -26 -3 -44 8 -60 9 -13 15 -32 14 -42 0
-10 0 -37 0 -60 2 -48 22 -60 22 -14 0 17 5 33 11 36 7 5 8 -5 3 -32 -9 -51
-8 -49 -54 -57 -51 -8 -53 -22 -3 -18 66 4 103 14 103 26 0 7 11 22 24 35 20
19 22 27 15 64 -4 24 -4 46 2 52 13 13 11 38 -3 29 -7 -4 -8 -3 -4 4 8 14 -24
122 -36 122 -9 0 -5 53 9 124 3 19 2 26 -6 22 -6 -4 -11 0 -11 9 0 30 125 133
226 185 29 16 51 30 49 32 -3 2 12 4 33 5 256 5 299 10 237 27 -11 3 -2 4 20
2 47 -4 99 19 91 39 -3 9 0 12 9 9 7 -3 16 -12 19 -20 3 -9 20 -14 43 -14 50
0 162 -27 190 -45 12 -8 30 -12 40 -9 14 5 15 4 4 -4 -11 -8 -3 -16 35 -35 43
-22 55 -35 87 -95 20 -39 40 -90 43 -114 4 -24 14 -48 23 -54 13 -10 13 -14 2
-28 -11 -13 -11 -16 2 -16 10 0 14 -9 13 -29 -1 -17 2 -27 7 -24 5 3 6 -5 2
-18 -11 -34 -15 -36 -31 -15 -8 11 -14 15 -14 9 0 -13 33 -43 48 -43 7 0 12
-5 12 -10 0 -7 -6 -7 -19 0 -27 14 -29 13 -33 -12 -5 -37 12 -47 39 -24 19 16
22 26 17 54 -6 29 -4 33 12 30 15 -2 19 3 17 25 -1 15 2 27 7 27 14 0 32 69
26 98 -5 21 -4 24 5 12 8 -12 9 -8 4 15 -8 38 -35 95 -45 95 -4 0 -17 8 -28
19 -22 18 -29 41 -14 41 5 0 16 16 25 35 25 52 23 180 -3 223 -11 17 -24 32
-30 32 -5 0 -16 15 -24 34 -10 23 -27 40 -58 55 -50 24 -64 25 -131 7z m43
-26 c0 -5 -12 -10 -26 -10 -14 0 -23 4 -19 10 3 6 15 10 26 10 10 0 19 -4 19
-10z m-390 -20 c0 -5 -4 -10 -10 -10 -5 0 -10 5 -10 10 0 6 5 10 10 10 6 0 10
-4 10 -10z m-70 -10 c0 -5 -4 -10 -10 -10 -5 0 -10 5 -10 10 0 6 5 10 10 10 6
0 10 -4 10 -10z m270 0 c0 -5 -4 -10 -10 -10 -5 0 -10 5 -10 10 0 6 5 10 10
10 6 0 10 -4 10 -10z m238 -25 c-3 -3 -9 2 -12 12 -6 14 -5 15 5 6 7 -7 10
-15 7 -18z m-568 -15 c-19 -12 -30 -12 -30 -1 0 10 31 20 40 14 2 -2 -2 -8
-10 -13z m419 -19 c-6 -2 -15 3 -20 10 -15 24 -10 29 11 11 12 -10 16 -18 9
-21z m-504 -1 c13 -6 15 -9 5 -9 -8 0 -22 4 -30 9 -18 12 -2 12 25 0z m789
-16 c4 -10 1 -14 -6 -12 -15 5 -23 28 -10 28 5 0 13 -7 16 -16z m-834 -10 c0
-8 -5 -12 -10 -9 -6 4 -8 11 -5 16 9 14 15 11 15 -7z m110 6 c0 -5 -7 -10 -16
-10 -8 0 -12 5 -9 10 3 6 10 10 16 10 5 0 9 -4 9 -10z m710 -20 c12 -8 11 -10
-7 -10 -13 0 -23 5 -23 10 0 13 11 13 30 0z m-440 -10 c0 -5 -4 -10 -10 -10
-5 0 -10 5 -10 10 0 6 5 10 10 10 6 0 10 -4 10 -10z m276 -27 c-8 -8 -36 5
-36 17 0 7 6 7 21 0 11 -7 18 -14 15 -17z m194 7 c0 -5 -4 -10 -10 -10 -5 0
-10 5 -10 10 0 6 5 10 10 10 6 0 10 -4 10 -10z m-111 -24 c7 -8 8 -17 3 -20
-6 -3 -12 3 -15 14 -6 24 -4 25 12 6z m-364 -6 c-3 -5 -10 -10 -16 -10 -5 0
-9 5 -9 10 0 6 7 10 16 10 8 0 12 -4 9 -10z m125 0 c0 -5 -4 -10 -10 -10 -5 0
-10 5 -10 10 0 6 5 10 10 10 6 0 10 -4 10 -10z m105 -10 c3 -5 2 -10 -4 -10
-5 0 -13 5 -16 10 -3 6 -2 10 4 10 5 0 13 -4 16 -10z m-915 -30 c0 -5 -2 -10
-4 -10 -3 0 -8 5 -11 10 -3 6 -1 10 4 10 6 0 11 -4 11 -10z m1165 -13 c6 -21
-8 -77 -19 -77 -3 0 -4 22 -3 50 2 53 13 66 22 27z m-975 -7 c0 -5 -2 -10 -4
-10 -3 0 -8 5 -11 10 -3 6 -1 10 4 10 6 0 11 -4 11 -10z m795 -40 c3 -5 1 -10
-4 -10 -6 0 -11 5 -11 10 0 6 2 10 4 10 3 0 8 -4 11 -10z m61 -27 c12 -16 15
-16 24 -3 5 8 10 10 10 4 0 -6 -6 -17 -14 -23 -11 -9 -17 -6 -30 14 -19 28
-10 34 10 8z m-976 -38 c-13 -14 -26 -22 -29 -19 -3 3 5 14 18 25 33 27 39 24
11 -6z m1064 -70 c3 -8 1 -15 -3 -15 -5 0 -11 7 -15 15 -3 8 -1 15 3 15 5 0
11 -7 15 -15z m56 -31 c0 -8 -4 -12 -10 -9 -5 3 -10 10 -10 16 0 5 5 9 10 9 6
0 10 -7 10 -16z m-1253 -36 c-3 -8 -6 -5 -6 6 -1 11 2 17 5 13 3 -3 4 -12 1
-19z m1217 7 c3 -8 1 -15 -4 -15 -6 0 -10 7 -10 15 0 8 2 15 4 15 2 0 6 -7 10
-15z m6 -125 c0 -5 -5 -10 -11 -10 -5 0 -7 5 -4 10 3 6 8 10 11 10 2 0 4 -4 4
-10z m-1215 -29 c3 -5 1 -12 -5 -16 -5 -3 -10 1 -10 9 0 18 6 21 15 7z m5 -81
c0 -10 -4 -22 -10 -25 -6 -4 -10 7 -10 25 0 18 4 29 10 25 6 -3 10 -15 10 -25z
m1180 -40 c0 -5 -2 -10 -4 -10 -3 0 -8 5 -11 10 -3 6 -1 10 4 10 6 0 11 -4 11
-10z m-1171 -146 c-6 -8 -16 -14 -22 -14 -7 0 -7 4 1 12 7 7 12 22 12 33 0 33
15 41 18 10 2 -14 -2 -33 -9 -41z"/>
<path d="M1093 1629 c-43 -12 -42 -22 1 -14 22 5 44 1 65 -9 30 -16 43 -8 19
12 -22 16 -52 20 -85 11z"/>
<path d="M1015 1593 c-21 -4 -53 -43 -36 -43 6 0 23 11 38 25 15 13 26 24 23
23 -3 0 -14 -3 -25 -5z"/>
<path d="M1540 1590 c-8 -5 -12 -11 -9 -14 2 -3 11 -1 19 4 8 5 12 11 9 14 -2
3 -11 1 -19 -4z"/>
<path d="M1570 1580 c0 -5 5 -10 10 -10 6 0 10 5 10 10 0 6 -4 10 -10 10 -5 0
-10 -4 -10 -10z"/>
<path d="M1659 1566 c14 -14 27 -26 29 -26 10 0 -26 44 -39 48 -8 3 -3 -7 10
-22z"/>
<path d="M1901 1506 c-1 -23 -5 -27 -21 -23 -29 7 -25 -2 7 -14 18 -7 30 -6
37 1 18 18 56 11 81 -15 16 -15 25 -19 25 -10 0 23 -52 54 -83 48 -21 -4 -29
-1 -36 18 -10 24 -10 23 -10 -5z"/>
<path d="M1167 1439 c7 -7 15 -10 18 -7 3 3 -2 9 -12 12 -14 6 -15 5 -6 -5z"/>
<path d="M1850 1440 c0 -5 15 -10 33 -9 27 0 29 2 12 9 -28 12 -45 12 -45 0z"/>
<path d="M1053 1427 c-12 -5 -24 -16 -28 -25 -4 -11 -2 -12 8 -4 7 6 24 15 37
20 13 5 19 11 14 14 -5 3 -19 1 -31 -5z"/>
<path d="M1584 1405 c11 -8 24 -15 30 -15 5 0 1 7 -10 15 -10 8 -23 14 -29 14
-5 0 -1 -6 9 -14z"/>
<path d="M1955 1410 c3 -5 8 -10 11 -10 2 0 4 5 4 10 0 6 -5 10 -11 10 -5 0
-7 -4 -4 -10z"/>
<path d="M737 1384 c-11 -14 -17 -28 -14 -31 6 -6 41 29 45 45 4 20 -12 13
-31 -14z"/>
<path d="M1873 1393 c9 -2 23 -2 30 0 6 3 -1 5 -18 5 -16 0 -22 -2 -12 -5z"/>
<path d="M1422 1317 c-1 -38 3 -78 10 -90 7 -12 15 -42 18 -67 4 -33 7 -39 11
-24 4 12 0 39 -9 60 -8 21 -18 73 -22 114 l-7 75 -1 -68z"/>
<path d="M634 1329 c-4 -7 -1 -10 7 -7 8 3 22 -1 32 -10 19 -17 24 -3 5 16
-15 15 -35 15 -44 1z"/>
<path d="M723 1325 c-19 -21 -16 -30 5 -13 9 9 26 18 37 21 16 4 15 5 -5 5
-14 1 -31 -5 -37 -13z"/>
<path d="M1817 1319 c7 -7 15 -10 18 -7 3 3 -2 9 -12 12 -14 6 -15 5 -6 -5z"/>
<path d="M740 1280 c0 -5 7 -10 16 -10 8 0 12 5 9 10 -3 6 -10 10 -16 10 -5 0
-9 -4 -9 -10z"/>
<path d="M713 1273 c-17 -6 -17 -49 0 -56 7 -2 17 5 23 18 10 20 9 22 -10 17
-19 -5 -19 -4 -7 11 14 18 14 19 -6 10z"/>
<path d="M1829 1228 c5 -13 14 -22 20 -21 6 2 8 -3 5 -11 -3 -8 -1 -17 5 -21
19 -11 12 41 -7 58 -25 23 -33 21 -23 -5z"/>
<path d="M764 1165 c-16 -12 -17 -14 -3 -15 9 0 19 7 23 15 7 19 5 19 -20 0z"/>
<path d="M1810 1150 c0 -5 5 -10 11 -10 5 0 7 5 4 10 -3 6 -8 10 -11 10 -2 0
-4 -4 -4 -10z"/>
<path d="M1850 1151 c0 -6 4 -13 10 -16 6 -3 7 1 4 9 -7 18 -14 21 -14 7z"/>
<path d="M769 1111 c-39 -39 -46 -56 -15 -36 24 16 52 54 44 59 -2 1 -15 -9
-29 -23z"/>
<path d="M1765 1120 c4 -6 2 -17 -4 -24 -9 -10 -1 -26 31 -66 l42 -52 -40 -74
c-21 -41 -45 -74 -51 -74 -7 0 -13 -7 -13 -15 0 -8 -4 -15 -8 -15 -5 0 -14
-12 -21 -26 -9 -21 -14 -24 -26 -14 -18 15 -20 -1 -3 -18 9 -9 8 -12 -5 -12
-9 0 -17 -4 -17 -10 0 -5 4 -10 9 -10 12 0 101 101 121 138 8 15 31 54 49 86
28 48 35 73 38 123 1 35 -2 63 -7 63 -5 0 -7 -7 -4 -15 7 -18 -7 -20 -26 -2
-8 6 -6 2 4 -10 10 -12 15 -27 11 -32 -3 -6 -1 -11 4 -11 15 0 14 -19 -3 -36
-15 -15 -32 -2 -21 15 3 6 -4 15 -15 21 -13 7 -21 20 -20 33 3 38 0 47 -16 47
-8 0 -12 -5 -9 -10z"/>
<path d="M611 1084 c0 -11 3 -14 6 -6 3 7 2 16 -1 19 -3 4 -6 -2 -5 -13z"/>
<path d="M820 1080 c-6 -11 -24 -27 -40 -35 -17 -9 -30 -20 -30 -26 0 -8 4 -8
13 0 8 6 18 7 22 3 5 -4 5 -1 1 6 -5 8 -1 12 12 12 20 0 52 29 52 48 0 19 -18
14 -30 -8z"/>
<path d="M1225 1065 c37 -15 77 -24 105 -24 l45 2 -45 6 c-25 4 -54 12 -65 18
-11 6 -38 13 -60 17 -37 6 -35 4 20 -19z"/>
<path d="M827 1028 c-18 -18 -28 -30 -23 -25 16 11 26 8 26 -8 0 -8 -9 -20
-19 -27 -10 -6 -17 -17 -14 -25 3 -7 9 -11 13 -8 4 3 15 -6 23 -19 15 -22 15
-26 -7 -49 -12 -13 -23 -32 -23 -42 0 -14 4 -13 18 6 15 20 19 21 19 7 0 -10
7 -18 15 -18 8 0 15 -7 15 -15 0 -8 -5 -15 -12 -15 -6 0 -2 -9 10 -20 25 -24
26 -29 8 -52 -16 -22 -26 -23 -26 -3 0 8 -4 15 -10 15 -14 0 -12 -16 4 -29 7
-6 22 -8 32 -4 17 6 17 5 5 -10 -12 -15 -11 -17 10 -15 21 3 24 -1 22 -26 l-2
-30 25 37 c14 21 22 42 19 47 -4 6 4 24 15 41 31 43 18 47 -17 5 -31 -40 -42
-45 -42 -18 0 32 -6 57 -16 64 -6 5 -1 14 13 23 12 9 22 21 22 27 0 6 -8 4
-18 -5 -30 -27 -40 -20 -38 26 2 23 -2 50 -8 60 -9 14 -7 21 5 30 9 7 22 23
29 37 l13 25 -27 -24 c-32 -30 -46 -21 -17 10 11 12 18 25 15 28 -4 3 -9 0
-11 -6 -5 -15 -33 -18 -33 -4 0 5 10 16 23 24 12 9 16 16 9 16 -7 1 -27 -14
-45 -31z m115 -350 c-6 -6 -15 -8 -19 -4 -4 4 -1 11 7 16 19 12 27 3 12 -12z"/>
<path d="M1746 991 c15 -23 27 -41 28 -41 1 0 2 16 3 35 1 19 -3 33 -8 30 -5
-3 -18 -1 -29 5 -19 10 -18 7 6 -29z"/>
<path d="M1051 1003 c7 -12 15 -20 18 -17 3 2 -3 12 -13 22 -17 16 -18 16 -5
-5z"/>
<path d="M711 982 c-7 -13 -6 -34 4 -67 8 -26 13 -51 10 -55 -3 -5 -1 -10 3
-12 5 -1 20 -21 35 -43 17 -25 27 -33 27 -22 0 9 -4 17 -8 17 -9 0 -35 60 -33
78 1 6 -2 12 -7 12 -9 0 -13 22 -14 83 -1 32 -4 33 -17 9z"/>
<path d="M1723 974 c15 -17 27 -40 27 -52 0 -30 14 -28 35 5 16 23 16 25 1 20
-10 -4 -30 5 -54 25 l-37 32 28 -30z"/>
<path d="M760 980 c-9 -6 -10 -10 -3 -10 6 0 15 5 18 10 8 12 4 12 -15 0z"/>
<path d="M1795 980 c3 -5 8 -10 11 -10 2 0 4 5 4 10 0 6 -5 10 -11 10 -5 0 -7
-4 -4 -10z"/>
<path d="M675 970 c3 -5 8 -10 11 -10 2 0 4 5 4 10 0 6 -5 10 -11 10 -5 0 -7
-4 -4 -10z"/>
<path d="M1580 948 c-46 -27 -124 -50 -128 -38 -2 5 -12 0 -23 -11 -11 -11
-33 -19 -54 -19 -34 0 -35 1 -37 43 -1 40 -1 40 -5 7 -3 -19 -11 -42 -18 -50
-12 -13 -10 -15 13 -17 61 -4 292 76 292 102 0 7 0 7 -40 -17z"/>
<path d="M1696 949 c14 -15 15 -22 6 -28 -9 -5 -11 -17 -6 -34 7 -30 24 -37
24 -10 0 15 2 14 14 -3 8 -10 17 -16 21 -12 4 4 -2 17 -14 29 -11 12 -18 26
-15 31 7 11 -24 48 -39 48 -6 0 -2 -9 9 -21z"/>
<path d="M1211 926 c-1 -25 -4 -27 -23 -21 -59 18 -68 13 -18 -9 30 -14 64
-25 75 -25 l20 0 -20 8 c-12 5 -22 21 -26 42 -6 32 -6 32 -8 5z"/>
<path d="M887 910 c-4 -17 -2 -18 14 -9 22 11 25 29 5 29 -7 0 -16 -9 -19 -20z"/>
<path d="M770 909 c0 -5 5 -7 10 -4 6 3 10 8 10 11 0 2 -4 4 -10 4 -5 0 -10
-5 -10 -11z"/>
<path d="M925 890 c-10 -11 -13 -20 -7 -20 6 0 16 9 22 20 6 11 9 20 7 20 -2
0 -12 -9 -22 -20z"/>
<path d="M1680 853 c0 -4 5 -15 10 -23 8 -13 10 -13 10 2 0 9 -4 20 -10 23 -5
3 -10 3 -10 -2z"/>
<path d="M826 795 c-9 -26 -7 -32 5 -12 6 10 9 21 6 23 -2 3 -7 -2 -11 -11z"/>
<path d="M947 793 c-4 -3 -7 -11 -7 -17 0 -6 5 -5 12 2 6 6 9 14 7 17 -3 3 -9
2 -12 -2z"/>
<path d="M800 761 c0 -6 4 -13 10 -16 6 -3 7 1 4 9 -7 18 -14 21 -14 7z"/>
<path d="M1600 765 c0 -5 5 -17 10 -25 5 -8 10 -10 10 -5 0 6 -5 17 -10 25 -5
8 -10 11 -10 5z"/>
<path d="M1300 741 c0 -5 3 -17 6 -25 5 -13 9 -14 20 -5 11 9 11 15 3 25 -13
16 -29 18 -29 5z"/>
<path d="M970 699 c0 -5 5 -7 10 -4 6 3 10 8 10 11 0 2 -4 4 -10 4 -5 0 -10
-5 -10 -11z"/>
<path d="M983 674 c-24 -20 -43 -42 -43 -49 0 -8 18 5 39 28 22 23 43 38 47
34 4 -4 -8 -23 -27 -43 -19 -19 -26 -32 -17 -29 9 4 19 13 22 21 3 8 10 14 17
14 6 0 8 -7 5 -17 -7 -17 -6 -17 9 -2 14 14 15 20 3 47 l-13 31 -42 -35z"/>
<path d="M1681 648 c1 -15 3 -17 6 -7 3 11 12 15 31 11 34 -6 26 3 -10 12 -25
6 -28 4 -27 -16z"/>
<path d="M1902 640 c22 -4 59 -24 87 -49 28 -22 70 -50 94 -60 41 -18 70 -44
109 -101 9 -14 17 -20 17 -13 2 26 -67 99 -114 122 -28 13 -67 39 -88 58 -43
38 -76 54 -115 52 -22 -1 -20 -3 10 -9z"/>
<path d="M1035 610 c-3 -5 -1 -10 4 -10 6 0 11 5 11 10 0 6 -2 10 -4 10 -3 0
-8 -4 -11 -10z"/>
<path d="M1581 594 c-14 -13 -27 -22 -29 -20 -2 2 -15 -7 -29 -20 -20 -19 -59
-33 -103 -39 -3 0 -11 -4 -18 -9 -7 -4 -16 -5 -19 -2 -3 3 -11 2 -18 -4 -6 -5
-38 -12 -72 -14 -33 -3 -68 -9 -78 -12 -18 -7 -18 -6 -2 16 24 35 21 48 -4 16
-22 -28 -44 -34 -52 -13 -4 9 -7 9 -18 0 -10 -10 -16 -9 -31 4 -10 9 -21 13
-25 10 -11 -11 29 -36 72 -45 51 -10 201 10 285 39 62 21 135 64 160 94 21 25
7 24 -19 -1z"/>
<path d="M1107 564 c-16 -19 -32 -33 -35 -30 -3 4 0 12 6 18 20 20 14 28 -13
18 -19 -7 -27 -6 -35 8 -10 15 -11 14 -4 -3 4 -11 8 -29 8 -40 2 -34 42 -27
76 11 25 29 38 54 28 54 -2 0 -16 -16 -31 -36z"/>
<path d="M970 557 c0 -18 -79 -67 -130 -82 -38 -11 -127 -62 -193 -110 -80
-59 -141 -184 -163 -335 -8 -54 3 -31 31 64 27 95 48 139 95 210 30 44 78 86
98 86 6 0 34 16 62 35 29 20 70 39 91 44 21 5 50 18 65 30 38 30 56 12 31 -30
-24 -43 -31 -101 -17 -144 15 -47 22 -41 10 10 -9 41 -3 98 10 90 10 -6 20 30
20 71 0 16 5 35 10 40 8 8 6 15 -5 24 -12 10 -15 10 -15 -3z"/>
<path d="M1730 441 c0 -7 -30 -45 -67 -83 -107 -112 -250 -196 -371 -217 -31
-6 -68 -13 -82 -15 -14 -3 13 -3 60 -2 72 2 95 8 153 36 85 40 215 137 261
193 39 50 60 86 52 95 -3 3 -6 0 -6 -7z"/>
<path d="M2219 303 c-8 -193 0 -303 21 -303 5 0 6 17 2 37 -7 42 -8 207 -2
292 2 34 0 56 -7 58 -7 3 -12 -27 -14 -84z"/>
</g>
</svg>
